<?xml version="1.0" encoding="UTF-8" standalone="no"?>
<!-- Created with Inkscape (http://www.inkscape.org/) -->

<svg
   width="42.606758mm"
   height="41.554665mm"
   viewBox="0 0 42.606758 41.554665"
   version="1.1"
   id="svg472"
   inkscape:version="1.1.2 (0a00cf5339, 2022-02-04)"
   sodipodi:docname="github.svg"
   xmlns:inkscape="http://www.inkscape.org/namespaces/inkscape"
   xmlns:sodipodi="http://sodipodi.sourceforge.net/DTD/sodipodi-0.dtd"
   xmlns="http://www.w3.org/2000/svg"
   xmlns:svg="http://www.w3.org/2000/svg">
  <sodipodi:namedview
     id="namedview474"
     pagecolor="#ffffff"
     bordercolor="#666666"
     borderopacity="1.0"
     inkscape:pageshadow="2"
     inkscape:pageopacity="0.0"
     inkscape:pagecheckerboard="0"
     inkscape:document-units="mm"
     showgrid="false"
     inkscape:zoom="0.52916667"
     inkscape:cx="-121.88976"
     inkscape:cy="94.488189"
     inkscape:window-width="1920"
     inkscape:window-height="1163"
     inkscape:window-x="0"
     inkscape:window-y="25"
     inkscape:window-maximized="1"
     inkscape:current-layer="layer1" />
  <defs
     id="defs469" />
  <g
     inkscape:label="Layer 1"
     inkscape:groupmode="layer"
     id="layer1"
     transform="translate(-137.19663,-123.72267)">
    <path
       d="m 158.50018,123.72267 c -11.76408,0 -21.30355,9.53735 -21.30355,21.30319 0,9.41247 6.10412,17.39794 14.56867,20.21495 1.06468,0.19716 1.45556,-0.46221 1.45556,-1.02489 0,-0.508 -0.0198,-2.18617 -0.0289,-3.96629 -5.92667,1.2887 -7.17727,-2.51354 -7.17727,-2.51354 -0.96908,-2.46239 -2.36537,-3.11714 -2.36537,-3.11714 -1.93287,-1.32221 0.1457,-1.29505 0.1457,-1.29505 2.13924,0.14993 3.26566,2.19534 3.26566,2.19534 1.90006,3.25684 4.98369,2.31528 6.19937,1.77094 0.1912,-1.37654 0.7433,-2.31704 1.35255,-2.84868 -4.73181,-0.53869 -9.70598,-2.36537 -9.70598,-10.5283 0,-2.32586 0.8322,-4.22628 2.19498,-5.71818 -0.22119,-0.53692 -0.95038,-2.70333 0.20638,-5.63774 0,0 1.78893,-0.57256 5.85999,2.1837 1.69933,-0.47202 3.52178,-0.70873 5.33224,-0.71685 1.81045,0.008 3.63431,0.24483 5.33682,0.71685 4.06612,-2.75626 5.85258,-2.1837 5.85258,-2.1837 1.15958,2.93441 0.43004,5.10082 0.20885,5.63774 1.36595,1.4919 2.19251,3.39232 2.19251,5.71818 0,8.18233 -4.98369,9.98396 -9.72749,10.51137 0.76411,0.6611 1.44497,1.95756 1.44497,3.94511 0,2.85009 -0.0247,5.14421 -0.0247,5.84624 0,0.56691 0.38347,1.23115 1.46332,1.02199 8.45997,-2.8201 14.55632,-10.80276 14.55632,-20.21205 0,-11.76584 -9.53805,-21.30319 -21.30319,-21.30319"
       style="fill:#ffffff;fill-opacity:1;fill-rule:evenodd;stroke:none;stroke-width:0.0352778"
       id="path106" />
    <path
       d="m 145.26536,154.30956 c -0.0469,0.10619 -0.21343,0.13759 -0.36512,0.0649 -0.15452,-0.0695 -0.2413,-0.21378 -0.19121,-0.31997 0.0459,-0.109 0.21273,-0.13899 0.36689,-0.0667 0.15487,0.0699 0.24307,0.21555 0.18944,0.32173 v 0"
       style="fill:#ffffff;fill-opacity:1;fill-rule:nonzero;stroke:none;stroke-width:0.0352778"
       id="path108" />
    <path
       d="m 146.12826,155.27194 c -0.1016,0.0942 -0.30021,0.0505 -0.43498,-0.0984 -0.13934,-0.14851 -0.16545,-0.34713 -0.0624,-0.44273 0.10478,-0.0942 0.29739,-0.0501 0.43709,0.0984 0.13935,0.15029 0.16652,0.34749 0.0603,0.44274 v 0"
       style="fill:#ffffff;fill-opacity:1;fill-rule:nonzero;stroke:none;stroke-width:0.0352778"
       id="path110" />
    <path
       d="m 146.96822,156.4989 c -0.13052,0.0907 -0.34396,0.006 -0.47589,-0.1838 -0.13053,-0.18944 -0.13053,-0.41663 0.003,-0.50764 0.13229,-0.091 0.34255,-0.009 0.47625,0.17885 0.13017,0.19227 0.13017,0.41981 -0.003,0.51259 v 0"
       style="fill:#ffffff;fill-opacity:1;fill-rule:nonzero;stroke:none;stroke-width:0.0352778"
       id="path112" />
    <path
       d="m 148.11898,157.68423 c -0.11677,0.12877 -0.36547,0.0942 -0.54751,-0.0815 -0.18626,-0.1718 -0.23812,-0.41557 -0.121,-0.54433 0.11818,-0.12912 0.3683,-0.0928 0.55174,0.0815 0.18486,0.17145 0.2413,0.41698 0.11677,0.54433 v 0"
       style="fill:#ffffff;fill-opacity:1;fill-rule:nonzero;stroke:none;stroke-width:0.0352778"
       id="path114" />
    <path
       d="m 149.70648,158.3725 c -0.0515,0.16687 -0.29104,0.24272 -0.53234,0.17181 -0.24094,-0.073 -0.39864,-0.26847 -0.34995,-0.43709 0.0501,-0.16793 0.29069,-0.24695 0.53375,-0.1711 0.24059,0.0727 0.39864,0.2667 0.34854,0.43638 v 0"
       style="fill:#ffffff;fill-opacity:1;fill-rule:nonzero;stroke:none;stroke-width:0.0352778"
       id="path116" />
    <path
       d="m 151.44991,158.50021 c 0.006,0.17568 -0.19861,0.32138 -0.45191,0.3242 -0.2547,0.006 -0.46072,-0.13617 -0.46355,-0.30903 0,-0.17745 0.20003,-0.32173 0.45473,-0.32597 0.2533,-0.005 0.46073,0.13617 0.46073,0.3108 v 0"
       style="fill:#ffffff;fill-opacity:1;fill-rule:nonzero;stroke:none;stroke-width:0.0352778"
       id="path118" />
    <path
       d="m 153.07234,158.22398 c 0.0303,0.17145 -0.1457,0.34749 -0.39723,0.39406 -0.2473,0.0455 -0.47625,-0.0603 -0.50765,-0.23037 -0.0307,-0.17568 0.14852,-0.35172 0.39547,-0.39722 0.25188,-0.0438 0.4773,0.0593 0.50941,0.23353 v 0"
       style="fill:#ffffff;fill-opacity:1;fill-rule:nonzero;stroke:none;stroke-width:0.0352778"
       id="path120" />
  </g>
</svg>
